# xmcd
#
# Track frame offsets:
#	150
#	14703
#	32358
#	49187
#
# Disc length: 1071 seconds
#
# Revision: 1
# Processed by: cddbd v1.4PL0 Copyright (c) Steve Scherf et al.
# Submitted via: EasyCDDAExtractor 5.1.0
#
DISCID=2a042d04
DTITLE=Jennifer Brown - Weak
DYEAR=2003
DGENRE=R&B
TTITLE0=Weak
TTITLE1=Weak (Candido Remix)
TTITLE2=Weak By Beatnix (Radio Edit)
TTITLE3=Weak By Beatnix (Full Vocal Club Mix)
EXTD=
EXTT0=
EXTT1=
EXTT2=
EXTT3=
PLAYORDER=
